<svg xmlns="http://www.w3.org/2000/svg" viewBox="0 0 340 340"><g id="Layer_22" data-name="Layer 22"><path d="M161.956,233.787s-2.459,6.259-6.8,15.126a9.26,9.26,0,0,0,2.52,11.422c3.105,2.375,8.107,4.141,16.055,2.8l15.149-29.344Z" style="fill:#f28a87"></path><path d="M159.838,204.14a98.909,98.909,0,0,1-8.419,21.965,8.527,8.527,0,0,0,4.3,12.047c5.635,2.128,14.559,2.592,27.719-4.063L188.88,199.3Z" style="fill:#f28a87"></path><path d="M179.5,177.822l-21.176-3.328a97.448,97.448,0,0,1-8.586,24.5,8.45,8.45,0,0,0,5.13,12.069c6.955,2.01,16.852,1.931,26.749-8.131Z" style="fill:#f28a87"></path><rect x="77.531" y="41.93" width="108.701" height="153.054" rx="9.456" transform="translate(-36.902 64.264) rotate(-24.13)" style="fill:#9fabc4"></rect><path d="M132.548,186.546a9.457,9.457,0,0,1-11.226-7.268L93.245,48.108a9.456,9.456,0,0,1,7.268-11.226l87.8-18.794a9.456,9.456,0,0,1,11.226,7.268L203.465,43.7Z" style="fill:#fff"></path><path d="M132.713,186.511l87.635-18.759a9.456,9.456,0,0,0,7.268-11.226L207.282,61.532,179.721,41.018Z" style="fill:#9fabc4"></path><path d="M181.082,88.552c-.089-.267-.185-.535-.288-.806a14.28,14.28,0,0,0-7.98-8.354,11.463,11.463,0,0,0-12.463,2.4,24.5,24.5,0,0,0-5.021,7.082,24.512,24.512,0,0,0-7.619-4.16,11.465,11.465,0,0,0-12.254,3.309,14.286,14.286,0,0,0-3.5,11.009c.027.289.059.572.095.851a18.261,18.261,0,0,0,11.379,14.389,217.107,217.107,0,0,1,20.027,9.742,216.775,216.775,0,0,1,13.72-17.543A18.257,18.257,0,0,0,181.082,88.552Z" style="fill:#f75b7d"></path><path d="M163.453,124.017a216.775,216.775,0,0,1,13.72-17.543,18.257,18.257,0,0,0,3.909-17.922c-.089-.267-.185-.535-.288-.806a14.28,14.28,0,0,0-7.98-8.354,11.194,11.194,0,0,0-5.214-.859L154.428,119.3C159.551,121.847,163.453,124.017,163.453,124.017Z" style="fill:#d13e68"></path><path d="M179.479,235.236c29.574-21.316,59.416-38.02,89.874-44.158q1.026,2.1,2.018,4.305a27,27,0,0,1,.36,21.012c-7.886,19.877-23.379,66.937-13.142,109.011H177.75s-14.6-9.083-11.408-35.129S176.153,256.858,179.479,235.236Z" style="fill:#ffd7cd"></path><path d="M239.877,165.546l-26.424,30.489,13.664,33.834a1.855,1.855,0,0,0,3.574-.585,96.224,96.224,0,0,0-.73-18.991l19.458,4.33a13.609,13.609,0,0,0,16.068-9.64l3.865-13.9A152.785,152.785,0,0,0,249.2,160Z" style="fill:#f28a87"></path><path d="M244.71,203.025l-17.581-3.991c-14.278-12.223-30.189-13.883-46.859-10.639l-23.12-5.249a9.456,9.456,0,0,1-7.128-11.315l29.7-130.813a9.458,9.458,0,0,1,11.316-7.128L278.6,53.769a9.458,9.458,0,0,1,7.128,11.316L256.026,195.9A9.457,9.457,0,0,1,244.71,203.025Z" style="fill:#fff"></path><path d="M200.5,192.988l26.631,6.046c-2.114-8.233-5.027-19.2-7.36-26.564C215.6,159.317,200.5,152.391,200.5,152.391Z" style="fill:#dee4f2"></path><path d="M179.479,235.236s1.976-33.568-5.6-62.747c0,0-2.169-11.064,10.234-19.732a14.87,14.87,0,0,1,22.509,7.292c3.041,8.611,6.916,20.481,10.443,33.986a155.534,155.534,0,0,0,6.608,19.706c2.693,6.569,5.864,15.708,6.291,23.169Z" style="fill:#ffd7cd"></path><path d="M224.385,92.57a77.679,77.679,0,0,1-21.418,21.2,77.668,77.668,0,0,1,8.794,28.822,77.679,77.679,0,0,1,21.418-21.2A77.668,77.668,0,0,1,224.385,92.57Z" style="fill:#f75b7d"></path><path d="M279.372,50.357,204.81,33.428l-1.849-8.8a12.974,12.974,0,0,0-15.381-9.958L99.78,33.459a13.536,13.536,0,0,0-8.165,5.629c-3.249,4.574-1.643,10.453-1.643,10.453L58.194,63.775A12.974,12.974,0,0,0,51.667,80.9l54.838,122.42a12.959,12.959,0,0,0,17.121,6.529l22.014-9.862a11.9,11.9,0,0,0,7.371,14.129,89.084,89.084,0,0,1-4.676,10.337,12.253,12.253,0,0,0-.684,10.1,11.743,11.743,0,0,0,6.828,6.88c.1.037.2.061.3.1-.895,1.948-1.812,3.9-2.766,5.851a12.764,12.764,0,0,0,3.537,15.74,20.316,20.316,0,0,0,11.854,3.949,145.721,145.721,0,0,0-4.535,22.789c-2,16.309,2.592,26.579,6.8,32.321.811,1.108,1.577,2.264,2.317,3.449h8.094a64.843,64.843,0,0,0-4.763-7.584c-3.458-4.723-7.219-13.3-5.5-27.335a150.279,150.279,0,0,1,7.042-30.63,147.655,147.655,0,0,0,6.08-24.3c.008-.056,0-.11.008-.166s.023-.1.026-.161c.082-1.39,1.914-34.341-5.669-63.678-.145-1-1-9.278,8.811-16.137a11.192,11.192,0,0,1,9.92-1.487,11.342,11.342,0,0,1,7.284,7.077c3.958,11.206,7.442,22.546,10.356,33.7a159.776,159.776,0,0,0,6.756,20.149c2.532,6.174,5.634,15.01,6.035,22.04a3.5,3.5,0,0,0,3.492,3.3c.067,0,.134,0,.2-.006a3.5,3.5,0,0,0,3.3-3.693c-.457-8-3.813-17.628-6.547-24.3-1.457-3.554-2.762-7.142-3.936-10.734l20.964,4.76a13.075,13.075,0,0,0,2.893.326,12.967,12.967,0,0,0,12.61-10.093l2.678-11.8c2.17,3.853,4.177,7.764,5.955,11.7a23.949,23.949,0,0,1,.384,18.58c-7.472,18.847-23.667,67.208-13.406,110.462H262.2l-.175-.891c-.01-.051-.021-.1-.034-.152C251.9,283.122,267.7,236.053,274.963,217.74a30.984,30.984,0,0,0-.51-24.039,157,157,0,0,0-10.082-18.755L289.138,65.86a12.954,12.954,0,0,0-9.766-15.5ZM97.492,42.892a5.912,5.912,0,0,1,3.753-2.587l87.8-18.794a5.957,5.957,0,0,1,7.068,4.563l1.186,5.649-5.487-1.246a12.968,12.968,0,0,0-15.5,9.766l-29.7,130.813a12.857,12.857,0,0,0,1.053,8.675l-15.846,3.392a5.96,5.96,0,0,1-7.071-4.577L96.667,47.375A5.919,5.919,0,0,1,97.492,42.892Zm23.272,160.565a5.962,5.962,0,0,1-7.871-3L58.056,78.035a5.963,5.963,0,0,1,3-7.871L91.471,56.54,117.9,180.011a12.951,12.951,0,0,0,15.381,9.958l19.882-4.256a3.388,3.388,0,0,0,.431-.139,13.084,13.084,0,0,0,2.781.985l1.4.318Zm32.077-2.841c.634-1.212,1.767-3.649,2.346-4.908l13.954-6.251,4.726,1.073c.654,4.544,1.133,9.016,1.48,13.276-6.066,4.57-12.621,5.882-19.5,3.893a4.948,4.948,0,0,1-3-7.083Zm1.364,31.473a5.258,5.258,0,0,1,.3-4.33,97.16,97.16,0,0,0,5.448-12.248c.663.048,1.339.081,2.033.081a27.785,27.785,0,0,0,13.887-3.764c.512,10.348.3,18.5.181,21.712-7.415,2.8-13.992,3.267-19.1,1.337A4.678,4.678,0,0,1,154.205,232.089Zm5.6,25.467a5.748,5.748,0,0,1-1.5-7.1c1.217-2.486,2.38-4.985,3.5-7.465.683.048,1.371.086,2.074.086a38.5,38.5,0,0,0,10.938-1.736,162.834,162.834,0,0,1-4.623,16.61q-.336,1.058-.675,2.125C165.48,260.244,162.216,259.4,159.8,257.556ZM282.312,64.311l-29.7,130.812a5.959,5.959,0,0,1-7.127,4.489l-24.805-5.631c-.074-.277-.16-.554-.232-.831-2.964-11.346-6.5-22.876-10.528-34.266a18.371,18.371,0,0,0-27.814-9c-14.11,9.86-11.771,22.731-11.664,23.274.013.07.029.138.046.206.829,3.192,1.536,6.445,2.147,9.705l-14.71-3.341a5.955,5.955,0,0,1-4.49-7.126l29.7-130.813a5.958,5.958,0,0,1,7.128-4.49l87.56,19.88a5.956,5.956,0,0,1,4.49,7.128Z" style="fill:#444457"></path></g></svg>