<svg xmlns="http://www.w3.org/2000/svg" viewBox="0 0 340 340"><g id="Layer_4" data-name="Layer 4"><polygon points="48.456 328.86 43.94 260.965 314.94 260.965 312.582 328.86 48.456 328.86" style="fill:#444457"></polygon><rect x="10" y="304.179" width="38.456" height="24.681" style="fill:#b8bfd3"></rect><rect x="10" y="290.997" width="38.456" height="24.681" style="fill:#b8bfd3"></rect><path d="M204.262,28.3s14.592-11.808,30.482.453c17.048,13.154,14.086,56.535-1.783,82.77a7.738,7.738,0,0,1-12.4,1.169,50.525,50.525,0,0,1-12.239-25.321C204,61.923,204.262,28.3,204.262,28.3Z" style="fill:#ffc362"></path><path d="M197.565,123.978H150.1a213.407,213.407,0,0,1-27.7,14.216l3.931,121.65c27.751,4.139,60.339,3.163,95,0l3.931-121.65A213.407,213.407,0,0,1,197.565,123.978Z" style="fill:#737391"></path><path d="M126.334,259.844c15.741,2.348,33.042,3.047,51.39,2.637l-39.231-18.442-8.134-26.67s-2.106,6.884-4.871,16.279Z" style="fill:#49495c"></path><path d="M199.17,149.633c-1.842,13.652-7.717,36.328-26.422,47.032,0,0-20.286-12.036-24.147-47.952L174.806,134.7Z" style="fill:#fff"></path><path d="M147.973,137.347a112.685,112.685,0,0,0,.635,11.365,46.493,46.493,0,0,1,25.224,2.386,33.563,33.563,0,0,1,25.338-1.465,84.655,84.655,0,0,0,.839-11.1Z" style="fill:#b8bfd3"></path><path d="M152.211,104.425s-11.983,17.661-13.245,39.105c0,0,12.3-5.046,23.81-1.577l6.78-37.528Z" style="fill:#fff"></path><path d="M195.452,104.425s11.983,17.661,13.245,39.105c0,0-12.3-5.046-23.81-1.577l-6.78-37.528Z" style="fill:#fff"></path><path d="M160.074,110.472v25.886a19.09,19.09,0,0,0,3.088,10.464,45.747,45.747,0,0,0,10.67,11.248A45.759,45.759,0,0,0,184.5,146.822a19.09,19.09,0,0,0,3.088-10.464V110.472Z" style="fill:#ffd7cd"></path><path d="M160.074,123.085a60.78,60.78,0,0,0,27.515,5.744V110.472H160.074Z" style="fill:#f28a87"></path><path d="M200.009,101.5s16.057,2.258,19.444-9.283a30.385,30.385,0,0,0,.989-12.672,9.388,9.388,0,0,0-9-8.031l-9.806-.371Z" style="fill:#f28a87"></path><path d="M147.973,101.5s-16.056,2.258-19.443-9.283a28.872,28.872,0,0,1,1.254-20.447l16.558-.627Z" style="fill:#f28a87"></path><path d="M139.748,38.193V73.335l2.441,17.372a28.6,28.6,0,0,0,9.161,17.382,61.863,61.863,0,0,0,22.482,12.666,61.867,61.867,0,0,0,22.481-12.666,28.59,28.59,0,0,0,9.161-17.382l2.441-17.372V38.193Z" style="fill:#ffd7cd"></path><path d="M176.281,41.6s1.883,21.513,25.042,30.634a11.884,11.884,0,0,0,12.311-2.151c2.858-2.6,5.441-6.989,5.525-14.357a33.069,33.069,0,0,0-2.218-11.97c-3.963-10.561-15.705-32.612-44.657-32.612-33.753,0-48.586,33.933-45.568,59.188a9.024,9.024,0,0,0,11.026,7.754C149.5,75.24,169.4,66.761,176.281,41.6Z" style="fill:#ffc362"></path><path d="M225.26,138.194l6.548,2.833a25.621,25.621,0,0,1,14.944,18.48c4.156,20.679,12.406,62.624,13.828,110.769.3,9.992-8.16,19.127-18.116,20.033l-17.253,1.571c-22.5-7.689-40.677-17.771-52.134-31.583l48.17-4.381Z" style="fill:#fff"></path><path d="M225.211,291.88c-1.116-26.74-34.718-23.4-34.718-23.4L173.077,260.3l-26.861,2.442,53.794,31.435Z" style="fill:#b8bfd3"></path><path d="M173.991,305.243h35.594a7.045,7.045,0,0,0,7.045-7.045v-3.447a19.533,19.533,0,0,0-18.9-19.523l-10.139-.328S169.793,281.626,173.991,305.243Z" style="fill:#ffd7cd"></path><path d="M187.589,274.9l-54.168-27.048h0L122.4,138.194s-15.057,2.81-18.119,41.5L97.663,259.62a19.337,19.337,0,0,0,12,19.513l64.329,26.11S173.186,291.881,187.589,274.9Z" style="fill:#fff"></path><path d="M89.1,303.234v14.409c0,6.2,7.8,11.217,17.418,11.217s17.418-5.022,17.418-11.217V303.234Z" style="fill:#ff9a50"></path><path d="M89.1,289.215v14.408c0,6.195,7.8,11.217,17.418,11.217s17.418-5.022,17.418-11.217V289.215Z" style="fill:#ff9a50"></path><path d="M89.1,275.2V289.6c0,6.195,7.8,11.216,17.418,11.216s17.418-5.021,17.418-11.216V275.2Z" style="fill:#ff9a50"></path><ellipse cx="106.515" cy="275.195" rx="17.418" ry="11.217" style="fill:#ffd574"></ellipse><rect x="295.164" y="246.093" width="34.836" height="29.102" style="fill:#6a6a7d"></rect><path d="M295.164,232.073v14.409c0,6.195,7.8,11.217,17.418,11.217S330,252.677,330,246.482V232.073Z" style="fill:#6a6a7d"></path><path d="M295.164,218.054v14.408c0,6.2,7.8,11.217,17.418,11.217S330,238.657,330,232.462V218.054Z" style="fill:#6a6a7d"></path><ellipse cx="312.582" cy="218.054" rx="17.418" ry="11.217" style="fill:#9494b2"></ellipse><path d="M295.164,303.234v14.409c0,6.2,7.8,11.217,17.418,11.217S330,323.838,330,317.643V303.234Z" style="fill:#6992d9"></path><path d="M295.164,289.215v14.408c0,6.195,7.8,11.217,17.418,11.217S330,309.818,330,303.623V289.215Z" style="fill:#6992d9"></path><path d="M295.164,275.2V289.6c0,6.195,7.8,11.216,17.418,11.216S330,295.8,330,289.6V275.2Z" style="fill:#6992d9"></path><ellipse cx="312.582" cy="275.195" rx="17.418" ry="11.217" style="fill:#9bc7ff"></ellipse><path d="M260.328,282.01v14.409c0,6.195,7.8,11.217,17.418,11.217s17.418-5.022,17.418-11.217V282.01Z" style="fill:#e0405f"></path><path d="M260.328,267.991V282.4c0,6.195,7.8,11.217,17.418,11.217s17.418-5.022,17.418-11.217V267.991Z" style="fill:#e0405f"></path><path d="M260.328,253.971V268.38c0,6.195,7.8,11.217,17.418,11.217s17.418-5.022,17.418-11.217V253.971Z" style="fill:#e0405f"></path><ellipse cx="277.746" cy="253.971" rx="17.418" ry="11.217" style="fill:#ff6d8f"></ellipse><path d="M48.456,302.5H10V289.339q20.348-5.855,38.456,0Z" style="fill:#b8bfd3"></path><rect x="10" y="232.59" width="38.456" height="56.75" style="fill:#fff"></rect><polygon points="29.228 246.712 20.624 260.825 29.228 274.939 37.831 260.825 29.228 246.712" style="fill:#f75b7d"></polygon><path d="M170.855,106.492a20.608,20.608,0,0,1-2.724-.157,3.5,3.5,0,0,1,.985-6.93,18.56,18.56,0,0,0,10.181-1.9,3.5,3.5,0,0,1,3.367,6.137A24.925,24.925,0,0,1,170.855,106.492Z" style="fill:#f28a87"></path><circle cx="172.748" cy="217.369" r="3.638" style="fill:#444457"></circle><circle cx="172.748" cy="237.923" r="3.638" style="fill:#444457"></circle><circle cx="163.439" cy="84.583" r="3.638" style="fill:#f28a87"></circle><circle cx="184.224" cy="84.583" r="3.638" style="fill:#f28a87"></circle><path d="M312.582,203.337c-11.729,0-20.918,6.464-20.918,14.716v24.865a26.5,26.5,0,0,0-13.918-3.664c-6.448,0-12.116,1.961-15.924,5.091a706.627,706.627,0,0,0-11.638-85.527,29.14,29.14,0,0,0-16.986-21l-6.549-2.832a.318.318,0,0,0-.033-.01c-.013,0-.023-.014-.036-.019a179.427,179.427,0,0,1-17.334-8.317,95.906,95.906,0,0,0-7.75-18.848,31.377,31.377,0,0,0,2.015-2.618,28.55,28.55,0,0,0,6.947-.858,54.53,54.53,0,0,0,7.5,10.719,11.126,11.126,0,0,0,8.343,3.748c.356,0,.715-.017,1.075-.051a11.158,11.158,0,0,0,8.584-5.391c16.349-27.028,19.987-72.644.926-87.352-11.872-9.161-23.3-6.313-29.2-3.7-7.581-7.913-18.88-14.648-35.4-14.648a45.176,45.176,0,0,0-34.731,15.426C126.84,35.135,121.222,53.849,123.24,70.743a12.6,12.6,0,0,0,1.54,4.673,33.5,33.5,0,0,0,.391,17.783c2.2,7.513,9.08,11.808,18.975,11.962a31.6,31.6,0,0,0,2.021,2.628,95.928,95.928,0,0,0-7.75,18.847,180.337,180.337,0,0,1-17.1,8.22c-3.143.823-17.519,6.642-20.519,44.553l-6.467,78.056H51.956V232.59a3.5,3.5,0,0,0-3.5-3.5H10a3.5,3.5,0,0,0-3.5,3.5v96.27a3.5,3.5,0,0,0,3.5,3.5H312.582c11.73,0,20.918-6.465,20.918-14.717v-99.59C333.5,209.8,324.312,203.337,312.582,203.337ZM326.5,303.623c0,3.65-5.716,7.717-13.918,7.717s-13.918-4.067-13.918-7.717v-2.967a28.26,28.26,0,0,0,27.836,0ZM106.516,267.478c8.2,0,13.918,4.067,13.918,7.717s-5.716,7.717-13.918,7.717S92.6,278.845,92.6,275.2,98.313,267.478,106.516,267.478ZM120.434,289.6c0,3.65-5.716,7.717-13.918,7.717S92.6,293.254,92.6,289.6v-3.356a28.266,28.266,0,0,0,27.836,0ZM92.6,300.656a28.26,28.26,0,0,0,27.836,0v2.967c0,3.65-5.716,7.717-13.918,7.717S92.6,307.273,92.6,303.623Zm0,16.987v-2.967a28.266,28.266,0,0,0,27.836,0v2.967c0,3.65-5.716,7.717-13.918,7.717S92.6,321.293,92.6,317.643Zm34.836,0V290.124l44.512,17.8a11.446,11.446,0,0,0,4.248.817h33.391A10.545,10.545,0,0,0,220.13,298.2v-2.341l22.652-2.062a22.379,22.379,0,0,0,14.046-6.731v9.355c0,8.252,9.189,14.716,20.918,14.716a26.5,26.5,0,0,0,13.918-3.664v10.172a11.749,11.749,0,0,0,3.042,7.717H124.392A11.749,11.749,0,0,0,127.434,317.643Zm61.758-39.189,8.423.272a15.966,15.966,0,0,1,15.515,16.025V298.2a3.548,3.548,0,0,1-3.545,3.544h-31.8C178.5,297.257,180.945,288.634,189.192,278.454ZM291.664,282.4c0,3.65-5.716,7.717-13.918,7.717s-13.918-4.067-13.918-7.717v-2.967a28.266,28.266,0,0,0,27.836,0Zm-27.836,11.053a28.266,28.266,0,0,0,27.836,0v2.967c0,3.65-5.716,7.716-13.918,7.716s-13.918-4.066-13.918-7.716Zm48.754-25.974c8.2,0,13.918,4.067,13.918,7.717s-5.716,7.717-13.918,7.717-13.918-4.067-13.918-7.717S304.38,267.478,312.582,267.478Zm-13.918-3.336v-6.608a24.707,24.707,0,0,0,9.277,3.3A24.742,24.742,0,0,0,298.664,264.142Zm-7,4.238c0,3.65-5.716,7.716-13.918,7.716s-13.918-4.066-13.918-7.716v-3.356a28.266,28.266,0,0,0,27.836,0ZM326.5,289.6c0,3.65-5.716,7.717-13.918,7.717s-13.918-4.067-13.918-7.717v-3.356a28.266,28.266,0,0,0,27.836,0Zm-9.277-28.766a24.707,24.707,0,0,0,9.277-3.3v6.608A24.742,24.742,0,0,0,317.223,260.838Zm9.277-14.356c0,3.65-5.716,7.716-13.918,7.716s-13.918-4.066-13.918-7.716v-2.967a28.266,28.266,0,0,0,27.836,0Zm0-14.02c0,3.65-5.716,7.717-13.918,7.717s-13.918-4.067-13.918-7.717v-3.356a28.266,28.266,0,0,0,27.836,0Zm-13.918-22.125c8.2,0,13.918,4.067,13.918,7.716s-5.716,7.717-13.918,7.717-13.918-4.067-13.918-7.717S304.38,210.337,312.582,210.337Zm-34.836,35.917c8.2,0,13.918,4.067,13.918,7.717s-5.716,7.717-13.918,7.717-13.918-4.067-13.918-7.717S269.544,246.254,277.746,246.254ZM243.32,160.2c4.548,20.839,11.465,63.115,12.874,110.83a15.451,15.451,0,0,1-14.047,15.8L219.386,288.9a22.921,22.921,0,0,0-21.544-17.166l-9.374-.3L173.2,263.8l48.368-4.4,9.623-.875a3.5,3.5,0,0,0-.635-6.972l-5.672.516,3.7-108.626S240.691,148.147,243.32,160.2ZM221.679,140.49l-3.825,112.22-31.23,2.84V211.011a17.3,17.3,0,0,0-7.568-14.316c18.53-13.862,23.019-39.434,24.1-51.221,2.544.635,5.093,1.556,5.542,1.556a3.5,3.5,0,0,0,3.494-3.706,71.5,71.5,0,0,0-.9-7.713C214.914,137.446,218.39,139.082,221.679,140.49Zm-70.218-27.725a62.719,62.719,0,0,0,5.113,3.689v19.9c0,.329.021.655.035.982a45.259,45.259,0,0,0-13.633,1.289A84.711,84.711,0,0,1,151.461,112.765Zm53.227,25.863a45.273,45.273,0,0,0-13.634-1.288c.014-.327.035-.653.035-.982v-19.9a62.719,62.719,0,0,0,5.113-3.689A84.738,84.738,0,0,1,204.688,138.628Zm-41.114-2.27V120.4a69.664,69.664,0,0,0,9.191,3.684,3.492,3.492,0,0,0,2.134,0,69.6,69.6,0,0,0,9.19-3.684v15.954a15.552,15.552,0,0,1-2.516,8.547,40.934,40.934,0,0,1-7.741,8.673,40.9,40.9,0,0,1-7.741-8.673A15.545,15.545,0,0,1,163.574,136.358Zm38.435-46.139a25.11,25.11,0,0,1-8.028,15.26,57.9,57.9,0,0,1-20.149,11.59,57.916,57.916,0,0,1-20.151-11.59,25.108,25.108,0,0,1-8.026-15.26L144.2,79.847c10.34-3.518,23.821-11.05,31.647-27.117,3.312,7.554,10.156,17.227,24.2,22.757a15.5,15.5,0,0,0,3.9.969Zm-43.932,54.294a22.3,22.3,0,0,0,2.157,4.227,49.2,49.2,0,0,0,11.479,12.116,3.5,3.5,0,0,0,4.238,0,49.206,49.206,0,0,0,11.479-12.117,22.289,22.289,0,0,0,2.156-4.226,31.553,31.553,0,0,1,6.642-.169c-.933,10.944-5.071,36.216-23.348,48.14-4.935-3.828-19.054-17.374-21.146-48.161A31.2,31.2,0,0,1,158.077,144.513ZM208.94,91.194,211.131,75.6c.379-.141.753-.294,1.12-.464a5.806,5.806,0,0,1,4.723,4.872,26.822,26.822,0,0,1-.88,11.219c-1.26,4.291-5.2,5.981-8.806,6.606A32.988,32.988,0,0,0,208.94,91.194Zm23.666-59.667c14.511,11.2,13.129,52.117-2.64,78.187a4.236,4.236,0,0,1-6.8.645,47.516,47.516,0,0,1-6.295-8.93,15.089,15.089,0,0,0,5.939-8.23,33.789,33.789,0,0,0,1.1-14.126,12.7,12.7,0,0,0-5.637-8.917c2.272-3.016,4.308-7.6,4.385-14.394a36.443,36.443,0,0,0-2.441-13.24,62.7,62.7,0,0,0-7.825-14.589C217.422,26.167,224.812,25.514,232.606,31.527Zm-89.818-3.814a38.355,38.355,0,0,1,29.5-13.073c26.1,0,37.128,19.01,41.381,30.342a29.5,29.5,0,0,1,1.994,10.7c-.059,5.244-1.534,9.216-4.382,11.809a8.381,8.381,0,0,1-8.672,1.483c-20.74-8.169-22.76-26.88-22.838-27.695a3.5,3.5,0,0,0-6.862-.606C166.458,64.252,147.592,72.1,136.92,74.68a5.349,5.349,0,0,1-4.362-.827,5.614,5.614,0,0,1-2.367-3.94C128.4,54.917,133.344,38.352,142.788,27.713Zm-10.9,63.515a26.876,26.876,0,0,1-.985-10.354,12.442,12.442,0,0,0,4.763.955,12.317,12.317,0,0,0,1.722-.134l1.336,9.5a32.922,32.922,0,0,0,1.636,6.6C136.764,97.119,133.107,95.382,131.888,91.228Zm5.042,55.145a3.5,3.5,0,0,0,2.04.655c.445,0,3.113-.969,5.825-1.627,2.878,39.2,24.27,53.113,26.065,54.213l4.2,2.824a10.317,10.317,0,0,1,4.564,8.573v45.176l-18.337,1.667-24.575-12.272L126.145,140.42c3.241-1.392,6.66-3,10.224-4.809a71.5,71.5,0,0,0-.9,7.713A3.5,3.5,0,0,0,136.93,146.373Zm-29.157,33.6c1.8-22.7,7.752-32.095,11.7-35.895L129.939,248.2a3.5,3.5,0,0,0,1.919,2.781l50.288,25.111c-7.688,10.151-10.329,18.881-11.22,24.127l-43.492-17.652V275.2c0-8.252-9.189-14.717-20.918-14.717a30.2,30.2,0,0,0-5.417.5q.009-.533.052-1.067Zm-62.817,132.2H13.5V306H44.956Zm0-13.182H13.5V292.84H44.956ZM13.5,319.178H44.956v6.182H13.5Zm0-83.088H44.956v49.75H13.5Zm38.456,28.375H92.093c-4.012,2.665-6.5,6.452-6.5,10.73v42.448a11.753,11.753,0,0,0,3.041,7.717H51.956Zm260.626,60.9c-8.2,0-13.918-4.067-13.918-7.717v-2.967a28.266,28.266,0,0,0,27.836,0v2.967C326.5,321.293,320.784,325.36,312.582,325.36Z" style="fill:#444457"></path></g></svg>